<svg width="640" height="640" viewBox="0 0 640 640" xmlns="http://www.w3.org/2000/svg">
  <defs>
    <linearGradient id="g" x1="104" y1="80" x2="536" y2="560" gradientUnits="userSpaceOnUse">
      <stop stop-color="#B7FF65"/>
      <stop offset=".5" stop-color="#35E5FF"/>
      <stop offset="1" stop-color="#8A69FF"/>
    </linearGradient>
    <filter id="shadow" x="-50%" y="-50%" width="200%" height="200%">
      <feDropShadow dx="0" dy="20" stdDeviation="22" flood-color="#000" flood-opacity=".42"/>
      <feDropShadow dx="0" dy="0" stdDeviation="16" flood-color="#35E5FF" flood-opacity=".25"/>
    </filter>
  </defs>

  <g filter="url(#shadow)">
    <path d="M118 294 320 400 522 294 522 502 320 608 118 502V294Z"
      fill="#09101D" stroke="url(#g)" stroke-width="18" stroke-linejoin="round"/>
    <path d="M118 294 320 400 522 294M320 400V608"
      fill="none" stroke="url(#g)" stroke-width="18" stroke-linecap="round" stroke-linejoin="round"/>

    <path d="M112 286 240 210 320 286 118 392 112 286Z"
      fill="#111B2E" stroke="url(#g)" stroke-width="18" stroke-linejoin="round"/>
    <path d="M528 286 400 210 320 286 522 392 528 286Z"
      fill="#111B2E" stroke="url(#g)" stroke-width="18" stroke-linejoin="round"/>

    <path d="M320 258V116" stroke="url(#g)" stroke-width="18" stroke-linecap="round"/>
    <path d="m320 76 16 32 36 5-26 25 6 36-32-17-32 17 6-36-26-25 36-5 16-32Z" fill="url(#g)"/>

    <text x="320" y="365" text-anchor="middle" fill="#FFFFFF"
      font-size="86" font-family="Arial, Helvetica, sans-serif" font-weight="900">OTB</text>
  </g>
</svg>
