<svg width="512" height="512" viewBox="0 0 512 512" xmlns="http://www.w3.org/2000/svg">
  <defs>
    <linearGradient id="g" x1="68" y1="44" x2="446" y2="472" gradientUnits="userSpaceOnUse">
      <stop stop-color="#A9FF68"/>
      <stop offset=".48" stop-color="#35E0FF"/>
      <stop offset="1" stop-color="#8D6CFF"/>
    </linearGradient>
    <radialGradient id="light" cx="0" cy="0" r="1" gradientTransform="translate(256 230) rotate(90) scale(184)">
      <stop stop-color="#FFFFFF"/>
      <stop offset=".18" stop-color="#C8FFF1"/>
      <stop offset=".55" stop-color="#35E0FF" stop-opacity=".55"/>
      <stop offset="1" stop-color="#35E0FF" stop-opacity="0"/>
    </radialGradient>
    <filter id="shadow" x="-50%" y="-50%" width="200%" height="200%">
      <feDropShadow dx="0" dy="26" stdDeviation="28" flood-color="#000" flood-opacity=".45"/>
      <feDropShadow dx="0" dy="0" stdDeviation="18" flood-color="#35E0FF" flood-opacity=".32"/>
    </filter>
  </defs>

  <g filter="url(#shadow)">
    <path d="M256 62 430 162v188L256 450 82 350V162L256 62Z" fill="#0A1020" stroke="url(#g)" stroke-width="18" stroke-linejoin="round"/>
    <path d="M256 62 430 162 256 262 82 162 256 62Z" fill="url(#g)" opacity=".18"/>
    <path d="M82 162 256 262v188L82 350V162Z" fill="#0D1527"/>
    <path d="M430 162 256 262v188l174-100V162Z" fill="#111A31"/>
    <path d="M256 262 430 162M256 262 82 162M256 262v188" fill="none" stroke="url(#g)" stroke-width="18" stroke-linecap="round" stroke-linejoin="round"/>

    <path d="M256 62 364 124 256 186 148 124 256 62Z" fill="#111A31" stroke="url(#g)" stroke-width="14" stroke-linejoin="round"/>
    <path d="M256 83 327 124 256 165 185 124 256 83Z" fill="url(#light)"/>

    <circle cx="256" cy="264" r="62" fill="#08101D" stroke="url(#g)" stroke-width="13"/>
    <text x="256" y="282" text-anchor="middle" fill="#FFFFFF" font-size="54" font-family="Arial, Helvetica, sans-serif" font-weight="900">OTB</text>

    <path d="m392 93 8 24 24 8-24 8-8 24-8-24-24-8 24-8 8-24Z" fill="#A9FF68"/>
    <path d="m120 345 6 18 18 6-18 6-6 18-6-18-18-6 18-6 6-18Z" fill="#35E0FF"/>
  </g>
</svg>
